<svg width="120" height="40" viewBox="0 0 120 40" xmlns="http://www.w3.org/2000/svg">
  <defs>
    <linearGradient id="grad1" x1="0%" y1="0%" x2="100%" y2="100%">
      <stop offset="0%" style="stop-color:#4F46E5;stop-opacity:1" />
      <stop offset="100%" style="stop-color:#7C3AED;stop-opacity:1" />
    </linearGradient>
  </defs>
  
  <!-- Book icon -->
  <rect x="5" y="8" width="8" height="24" rx="2" fill="url(#grad1)" opacity="0.9"/>
  <rect x="7" y="10" width="4" height="2" rx="1" fill="white" opacity="0.8"/>
  <rect x="7" y="14" width="4" height="2" rx="1" fill="white" opacity="0.6"/>
  <rect x="7" y="18" width="4" height="2" rx="1" fill="white" opacity="0.8"/>
  <rect x="7" y="22" width="4" height="2" rx="1" fill="white" opacity="0.6"/>
  <rect x="7" y="26" width="4" height="2" rx="1" fill="white" opacity="0.8"/>
  
  <!-- Brain/AI icon -->
  <circle cx="22" cy="20" r="8" fill="url(#grad1)" opacity="0.8"/>
  <path d="M18 16 Q22 12 26 16 Q26 20 22 24 Q18 20 18 16" fill="white" opacity="0.9"/>
  <circle cx="20" cy="18" r="1" fill="#4F46E5"/>
  <circle cx="24" cy="18" r="1" fill="#4F46E5"/>
  <path d="M20 22 Q22 24 24 22" stroke="white" stroke-width="1" fill="none" opacity="0.8"/>
  
  <!-- Text -->
  <text x="35" y="25" font-family="Arial, sans-serif" font-size="16" font-weight="bold" fill="#1F2937">EduMorph</text>
</svg>
